# xmcd
#
# Track frame offsets:
#	150
#	13204
#	24738
#	31411
#	39902
#	47682
#	58434
#	69457
#	84269
#	98072
#	111320
#	120856
#	133736
#	155052
#
# Disc length: 2283 seconds
#
# Revision: 0
# Processed by: cddbd v1.5.2PL0 Copyright (c) Steve Scherf et al.
# Submitted via: EasyCDDAExtractor 11.0.0.1
#
DISCID=b908e90e
DTITLE=ΦΙΛΙΠΠΟΥ ΔΕΣΠΟΙΝΑ - ΜΕ ΣΕΒΑΣΜΟ
DYEAR=2000
DGENRE=ΛΑΪΚΑ
TTITLE0=ΛΙΓΟ ΛΙΓΟ ΘΑ ΜΕ ΣΥΝΗΘΙΣΕΙΣ
TTITLE1=ΟΣΗ ΓΛΥΚΑ ΕΧΟΥΝΕ ΤΑ ΧΕΙΛΗ ΣΟΥ
TTITLE2=ΠΑΝΤΑ ΕΣΕΝΑ ΣΥΛΟΓΙΕΜΑΙ
TTITLE3=ΜΟΥ ΠΕΤΑΞΕΣ ΤΗ ΒΕΡΑ
TTITLE4=ΣΗΚΩ ΧΟΡΕΨΕ ΚΟΥΚΛΙ ΜΟΥ
TTITLE5=ΟΣΟ ΜΕ ΜΑΛΩΝΕΙΣ
TTITLE6=ΠΕΡΙΦΡΟΝΑ ΜΕ ΓΛΥΚΕΙΑ ΜΟΥ
TTITLE7=ΠΗΡΑΝ ΤΑ ΣΤΗΘΙΑ ΜΟΥ ΦΩΤΙΑ
TTITLE8=ΜΟΝΟ ΕΣΥ
TTITLE9=ΦΥΓΕ ΚΙ ΑΣΕ ΜΕ
TTITLE10=ΤΟ ΗΞΕΡΑ ΠΩΣ ΘΑ ΜΟΥ ΦΥΓΕΙΣ
TTITLE11=ΠΡΟΣΕΥΧΗ
TTITLE12=ΤΑ ΜΑΥΡΑ ΜΑΤΙΑ ΣΟΥ
TTITLE13=ΤΑ ΟΝΕΙΡΑ
EXTD=
EXTT0=
EXTT1=
EXTT2=
EXTT3=
EXTT4=
EXTT5=
EXTT6=
EXTT7=
EXTT8=
EXTT9=
EXTT10=
EXTT11=
EXTT12=
EXTT13=
PLAYORDER=
